<?xml version="1.0" encoding="UTF-8"?>
<svg xmlns="http://www.w3.org/2000/svg" version="1.1" width="300" height="300" viewBox="0 0 300 300"><rect x="0" y="0" width="300" height="300" fill="#ffffff"/><g transform="scale(9.677)"><g transform="translate(1,1)"><path fill-rule="evenodd" d="M9 0L9 1L8 1L8 2L9 2L9 3L8 3L8 4L10 4L10 7L11 7L11 4L12 4L12 5L15 5L15 6L14 6L14 7L15 7L15 9L18 9L18 11L19 11L19 10L20 10L20 9L21 9L21 10L22 10L22 11L21 11L21 12L20 12L20 13L18 13L18 12L17 12L17 11L16 11L16 10L14 10L14 8L13 8L13 6L12 6L12 9L13 9L13 10L11 10L11 11L10 11L10 9L11 9L11 8L6 8L6 9L7 9L7 10L6 10L6 11L7 11L7 12L6 12L6 13L7 13L7 14L6 14L6 15L7 15L7 14L8 14L8 15L9 15L9 17L11 17L11 13L12 13L12 14L13 14L13 13L12 13L12 11L13 11L13 10L14 10L14 14L15 14L15 15L16 15L16 14L15 14L15 13L18 13L18 14L17 14L17 15L19 15L19 14L20 14L20 13L22 13L22 14L21 14L21 16L20 16L20 17L18 17L18 16L14 16L14 18L15 18L15 20L14 20L14 22L15 22L15 23L16 23L16 22L15 22L15 21L17 21L17 23L18 23L18 22L19 22L19 23L20 23L20 27L19 27L19 25L18 25L18 26L14 26L14 29L15 29L15 28L17 28L17 29L19 29L19 28L22 28L22 27L23 27L23 26L24 26L24 27L26 27L26 26L24 26L24 25L27 25L27 28L24 28L24 29L27 29L27 28L28 28L28 26L29 26L29 24L28 24L28 25L27 25L27 24L25 24L25 23L27 23L27 22L29 22L29 20L28 20L28 19L27 19L27 16L28 16L28 15L27 15L27 12L28 12L28 11L27 11L27 12L25 12L25 9L26 9L26 8L25 8L25 9L24 9L24 8L23 8L23 9L22 9L22 8L20 8L20 9L18 9L18 8L19 8L19 5L20 5L20 3L21 3L21 0L19 0L19 1L20 1L20 2L18 2L18 3L16 3L16 2L17 2L17 1L15 1L15 0L14 0L14 1L15 1L15 4L14 4L14 3L13 3L13 4L12 4L12 2L13 2L13 1L11 1L11 2L10 2L10 0ZM10 3L10 4L11 4L11 3ZM18 3L18 4L15 4L15 5L16 5L16 6L15 6L15 7L16 7L16 8L18 8L18 6L17 6L17 5L19 5L19 3ZM8 5L8 7L9 7L9 5ZM16 6L16 7L17 7L17 6ZM20 6L20 7L21 7L21 6ZM0 8L0 9L4 9L4 10L3 10L3 11L5 11L5 8ZM27 8L27 9L28 9L28 10L29 10L29 9L28 9L28 8ZM23 9L23 12L22 12L22 13L23 13L23 14L22 14L22 17L23 17L23 18L24 18L24 19L25 19L25 21L26 21L26 20L27 20L27 19L25 19L25 18L24 18L24 17L26 17L26 16L27 16L27 15L26 15L26 13L25 13L25 12L24 12L24 9ZM7 10L7 11L9 11L9 10ZM0 11L0 13L3 13L3 12L2 12L2 11ZM15 11L15 12L16 12L16 11ZM4 12L4 13L5 13L5 12ZM7 12L7 13L8 13L8 14L9 14L9 15L10 15L10 13L11 13L11 12L10 12L10 13L9 13L9 12ZM23 12L23 13L24 13L24 14L25 14L25 13L24 13L24 12ZM28 13L28 14L29 14L29 13ZM1 14L1 15L0 15L0 21L1 21L1 16L2 16L2 14ZM4 14L4 15L3 15L3 16L4 16L4 17L5 17L5 16L4 16L4 15L5 15L5 14ZM12 15L12 17L13 17L13 15ZM23 15L23 16L24 16L24 15ZM6 16L6 17L7 17L7 18L5 18L5 19L7 19L7 18L8 18L8 16ZM2 17L2 19L3 19L3 20L2 20L2 21L3 21L3 20L4 20L4 21L8 21L8 23L9 23L9 24L8 24L8 29L9 29L9 28L10 28L10 29L11 29L11 28L10 28L10 27L11 27L11 26L10 26L10 25L11 25L11 23L10 23L10 22L11 22L11 21L12 21L12 22L13 22L13 20L12 20L12 19L13 19L13 18L11 18L11 20L9 20L9 21L8 21L8 20L4 20L4 18L3 18L3 17ZM15 17L15 18L16 18L16 20L21 20L21 19L22 19L22 18L21 18L21 17L20 17L20 18L18 18L18 17ZM28 17L28 18L29 18L29 17ZM9 18L9 19L10 19L10 18ZM21 21L21 24L24 24L24 21ZM22 22L22 23L23 23L23 22ZM9 24L9 25L10 25L10 24ZM14 24L14 25L17 25L17 24ZM22 25L22 26L21 26L21 27L22 27L22 26L23 26L23 25ZM9 26L9 27L10 27L10 26ZM12 26L12 27L13 27L13 26ZM17 27L17 28L18 28L18 27ZM0 0L0 7L7 7L7 0ZM1 1L1 6L6 6L6 1ZM2 2L2 5L5 5L5 2ZM22 0L22 7L29 7L29 0ZM23 1L23 6L28 6L28 1ZM24 2L24 5L27 5L27 2ZM0 22L0 29L7 29L7 22ZM1 23L1 28L6 28L6 23ZM2 24L2 27L5 27L5 24Z" fill="#000000"/></g></g></svg>
