<?xml version="1.0" encoding="UTF-8"?>
<svg xmlns="http://www.w3.org/2000/svg" version="1.1" width="300" height="300" viewBox="0 0 300 300"><rect x="0" y="0" width="300" height="300" fill="#ffffff"/><g transform="scale(8.571)"><g transform="translate(1,1)"><path fill-rule="evenodd" d="M9 0L9 1L11 1L11 2L9 2L9 3L8 3L8 5L9 5L9 6L8 6L8 7L9 7L9 9L8 9L8 8L5 8L5 10L3 10L3 9L2 9L2 8L0 8L0 10L3 10L3 11L1 11L1 12L2 12L2 14L1 14L1 13L0 13L0 17L1 17L1 18L0 18L0 20L1 20L1 21L0 21L0 25L8 25L8 28L9 28L9 26L10 26L10 25L9 25L9 24L10 24L10 22L9 22L9 21L8 21L8 17L9 17L9 20L10 20L10 21L12 21L12 22L13 22L13 23L12 23L12 24L11 24L11 25L14 25L14 23L16 23L16 22L19 22L19 20L21 20L21 19L20 19L20 18L21 18L21 15L22 15L22 19L23 19L23 20L22 20L22 22L20 22L20 23L22 23L22 24L24 24L24 26L23 26L23 27L24 27L24 30L23 30L23 31L22 31L22 30L21 30L21 24L19 24L19 25L18 25L18 24L17 24L17 25L16 25L16 24L15 24L15 25L16 25L16 26L15 26L15 29L12 29L12 27L13 27L13 26L11 26L11 28L10 28L10 29L12 29L12 30L9 30L9 31L8 31L8 33L11 33L11 32L9 32L9 31L12 31L12 33L13 33L13 32L14 32L14 33L17 33L17 32L14 32L14 31L12 31L12 30L15 30L15 31L17 31L17 29L16 29L16 26L17 26L17 27L18 27L18 28L20 28L20 30L19 30L19 29L18 29L18 31L19 31L19 33L20 33L20 32L21 32L21 31L22 31L22 32L24 32L24 33L25 33L25 32L24 32L24 31L25 31L25 29L27 29L27 31L28 31L28 33L29 33L29 30L31 30L31 31L30 31L30 32L31 32L31 33L32 33L32 32L31 32L31 31L33 31L33 29L32 29L32 28L31 28L31 27L32 27L32 26L33 26L33 25L32 25L32 24L31 24L31 23L32 23L32 20L31 20L31 19L30 19L30 20L29 20L29 19L28 19L28 18L27 18L27 17L25 17L25 15L24 15L24 17L23 17L23 14L24 14L24 12L23 12L23 10L24 10L24 11L25 11L25 14L26 14L26 15L28 15L28 17L29 17L29 18L30 18L30 17L29 17L29 15L30 15L30 16L31 16L31 18L32 18L32 19L33 19L33 17L32 17L32 16L33 16L33 15L32 15L32 14L33 14L33 12L31 12L31 11L30 11L30 12L29 12L29 9L30 9L30 8L28 8L28 10L27 10L27 12L26 12L26 11L25 11L25 10L26 10L26 9L25 9L25 6L24 6L24 7L23 7L23 6L22 6L22 5L24 5L24 4L25 4L25 1L24 1L24 3L23 3L23 0L20 0L20 1L22 1L22 2L21 2L21 5L20 5L20 4L19 4L19 3L20 3L20 2L18 2L18 0L17 0L17 2L16 2L16 0L13 0L13 1L12 1L12 0ZM13 1L13 2L12 2L12 4L11 4L11 7L10 7L10 6L9 6L9 7L10 7L10 8L11 8L11 10L10 10L10 9L9 9L9 10L8 10L8 9L6 9L6 10L7 10L7 11L5 11L5 13L6 13L6 14L5 14L5 16L3 16L3 15L4 15L4 14L2 14L2 16L1 16L1 17L2 17L2 18L3 18L3 17L5 17L5 18L4 18L4 19L6 19L6 20L7 20L7 19L6 19L6 18L7 18L7 17L8 17L8 16L7 16L7 15L6 15L6 14L8 14L8 11L9 11L9 12L10 12L10 11L11 11L11 10L13 10L13 11L12 11L12 12L11 12L11 14L10 14L10 13L9 13L9 15L10 15L10 16L11 16L11 17L10 17L10 20L11 20L11 19L12 19L12 21L14 21L14 22L16 22L16 21L17 21L17 20L19 20L19 18L20 18L20 16L19 16L19 15L21 15L21 14L22 14L22 13L23 13L23 12L22 12L22 10L21 10L21 11L20 11L20 10L19 10L19 9L17 9L17 8L18 8L18 5L19 5L19 8L20 8L20 9L24 9L24 10L25 10L25 9L24 9L24 8L22 8L22 6L21 6L21 8L20 8L20 5L19 5L19 4L17 4L17 3L18 3L18 2L17 2L17 3L16 3L16 2L15 2L15 1ZM14 2L14 4L12 4L12 5L13 5L13 6L12 6L12 9L13 9L13 8L14 8L14 10L15 10L15 9L16 9L16 8L14 8L14 7L15 7L15 5L16 5L16 7L17 7L17 5L16 5L16 3L15 3L15 2ZM9 3L9 5L10 5L10 3ZM22 3L22 4L23 4L23 3ZM13 6L13 7L14 7L14 6ZM31 9L31 10L32 10L32 9ZM9 10L9 11L10 11L10 10ZM17 10L17 11L14 11L14 12L13 12L13 13L12 13L12 14L13 14L13 15L12 15L12 17L13 17L13 16L14 16L14 17L16 17L16 19L15 19L15 18L12 18L12 19L14 19L14 20L17 20L17 19L18 19L18 18L17 18L17 17L19 17L19 16L17 16L17 14L15 14L15 12L17 12L17 11L18 11L18 13L19 13L19 10ZM3 11L3 12L4 12L4 11ZM6 12L6 13L7 13L7 12ZM20 12L20 14L21 14L21 12ZM28 12L28 13L27 13L27 14L28 14L28 15L29 15L29 12ZM30 12L30 15L31 15L31 16L32 16L32 15L31 15L31 12ZM18 14L18 15L19 15L19 14ZM15 15L15 16L16 16L16 17L17 17L17 16L16 16L16 15ZM5 16L5 17L7 17L7 16ZM24 17L24 18L25 18L25 17ZM26 18L26 19L25 19L25 21L24 21L24 20L23 20L23 21L24 21L24 22L22 22L22 23L24 23L24 24L29 24L29 28L30 28L30 29L31 29L31 28L30 28L30 27L31 27L31 26L32 26L32 25L31 25L31 24L30 24L30 23L29 23L29 22L30 22L30 21L31 21L31 20L30 20L30 21L29 21L29 22L28 22L28 21L27 21L27 18ZM1 19L1 20L3 20L3 21L5 21L5 22L3 22L3 24L9 24L9 23L8 23L8 21L5 21L5 20L3 20L3 19ZM1 21L1 24L2 24L2 21ZM25 21L25 22L26 22L26 21ZM6 22L6 23L7 23L7 22ZM27 22L27 23L28 23L28 22ZM19 25L19 27L20 27L20 25ZM25 25L25 28L28 28L28 25ZM30 25L30 26L31 26L31 25ZM26 26L26 27L27 27L27 26ZM22 28L22 29L23 29L23 28ZM15 29L15 30L16 30L16 29ZM20 30L20 31L21 31L21 30ZM0 0L0 7L7 7L7 0ZM1 1L1 6L6 6L6 1ZM2 2L2 5L5 5L5 2ZM26 0L26 7L33 7L33 0ZM27 1L27 6L32 6L32 1ZM28 2L28 5L31 5L31 2ZM0 26L0 33L7 33L7 26ZM1 27L1 32L6 32L6 27ZM2 28L2 31L5 31L5 28Z" fill="#198754"/></g></g></svg>
